<?xml version="1.0" encoding="UTF-8" standalone="no"?>
<svg width="210px" height="158px" viewBox="0 0 210 210" preserveAspectRatio="none" version="1.1" xmlns="http://www.w3.org/2000/svg" xmlns:xlink="http://www.w3.org/1999/xlink" xmlns:sketch="http://www.bohemiancoding.com/sketch/ns">
    <!-- Generator: Sketch 3.4.3 (16618) - http://www.bohemiancoding.com/sketch -->
    <title>duck-red</title>
    <defs></defs>
    <g id="Page-1" stroke="none" stroke-width="1" fill="none" fill-rule="evenodd" sketch:type="MSPage" transform="translate(0, 25)">
        <g id="duck-red" sketch:type="MSLayerGroup" transform="translate(-13.000000, 8.000000)">
            <ellipse id="head-feather" fill="#F66A68" cx="118" cy="12" rx="10" ry="45"></ellipse>
            <ellipse id="head" fill="#F66A68" cx="118" cy="20" rx="58" ry="47"></ellipse>
            <g id="left-wing-container" transform="translate(0.000000, 54.000000)" sketch:type="MSShapeGroup" fill="#EE302D">
                <ellipse id="left-wing" transform="translate(46.538193, 57.026578) rotate(22.000000) translate(-46.538193, -57.026578) " cx="29" cy="42" rx="20" ry="35"></ellipse>
            </g>
            <g id="right-wing-container" transform="translate(189.000000, 111.500000) scale(-1, 1) translate(-189.000000, -111.500000) translate(142.000000, 54.000000)" sketch:type="MSShapeGroup" fill="#EE302D">
                <ellipse id="right-wing" transform="translate(46.538193, 57.026578) rotate(22.000000) translate(-46.538193, -57.026578) " cx="29" cy="42" rx="20" ry="35"></ellipse>
            </g>
            <ellipse id="body" fill="#F66A68" cx="118" cy="110" rx="88" ry="67"></ellipse>
            <ellipse id="chest" fill="#FB9290" cx="118" cy="128" rx="60" ry="48"></ellipse>
            <ellipse id="beak-top" fill="#E9B508" cx="118" cy="34" rx="7" ry="10"></ellipse>
            <ellipse id="beak-main" fill="#E9B508" cx="118" cy="38" rx="20" ry="10"></ellipse>
            <circle id="left-eye" fill="#FFFFFF" sketch:type="MSShapeGroup" cx="98" cy="12" r="12"></circle>
            <circle id="left-pupil" fill="#000000" sketch:type="MSShapeGroup" cx="98" cy="12" r="8"></circle>
            <circle id="right-eye" fill="#FFFFFF" sketch:type="MSShapeGroup" cx="138" cy="12" r="12"></circle>
            <circle id="right-pupil" fill="#000000" sketch:type="MSShapeGroup" cx="138" cy="12" r="8"></circle>
        </g>
    </g>
</svg>
