<?xml version="1.0" encoding="UTF-8"?>
<svg width="210px" height="155px" viewBox="0 0 210 155" version="1.1" xmlns="http://www.w3.org/2000/svg" xmlns:xlink="http://www.w3.org/1999/xlink">
    Generator: Sketch 50.2 (55047) - http://www.bohemiancoding.com/sketch
    <title>frog-green</title>
    <defs></defs>
    <g id="Page-1" stroke="none" stroke-width="1" fill="none" fill-rule="evenodd">
        <g id="duck-green" transform="translate(-13.000000, 8.000000)">
            <ellipse id="head-feather" fill="#69DA6B" cx="118" cy="12" rx="10" ry="45"></ellipse>
            <ellipse id="head" fill="#69DA6B" cx="118" cy="20" rx="58" ry="47"></ellipse>
            <g id="left-wing-container" transform="translate(0.000000, 54.000000)" fill="#4CC24F">
                <ellipse id="left-wing" transform="translate(46.538193, 57.026578) rotate(22.000000) translate(-46.538193, -57.026578) " cx="29" cy="42" rx="20" ry="35"></ellipse>
            </g>
            <g id="right-wing-container" transform="translate(189.000000, 111.500000) scale(-1, 1) translate(-189.000000, -111.500000) translate(142.000000, 54.000000)" fill="#4CC24F">
                <ellipse id="right-wing" transform="translate(46.538193, 57.026578) rotate(22.000000) translate(-46.538193, -57.026578) " cx="29" cy="42" rx="20" ry="35"></ellipse>
            </g>
            <ellipse id="body" fill="#69DA6B" cx="118" cy="110" rx="88" ry="67"></ellipse>
            <ellipse id="chest" fill="#77F87A" cx="118" cy="128" rx="60" ry="48"></ellipse>
            <ellipse id="beak-top" fill="#E9B508" cx="118" cy="34" rx="7" ry="10"></ellipse>
            <ellipse id="beak-main" fill="#E9B508" cx="118" cy="38" rx="20" ry="10"></ellipse>
            <circle id="left-eye" fill="#FFFFFF" cx="98" cy="12" r="12"></circle>
            <circle id="left-pupil" fill="#000000" cx="98" cy="12" r="8"></circle>
            <circle id="right-eye" fill="#FFFFFF" cx="138" cy="12" r="12"></circle>
            <circle id="right-pupil" fill="#000000" cx="138" cy="12" r="8"></circle>
        </g>
    </g>
</svg>
